<svg width="50" height="65" viewBox="0 0 50 65" fill="none" xmlns="http://www.w3.org/2000/svg">
<path d="M25 65C33.4722 57.0955 39.7569 49.9138 43.8542 43.4547C47.9514 36.9985 50 31.2649 50 26.2541C50 18.5614 47.5861 12.2618 42.7583 7.35537C37.9333 2.45179 32.0139 0 25 0C17.9861 0 12.0653 2.45179 7.2375 7.35537C2.4125 12.2618 0 18.5614 0 26.2541C0 31.2649 2.04861 36.9985 6.14583 43.4547C10.2431 49.9138 16.5278 57.0955 25 65Z" fill="#57A9F2"/>
<mask id="mask0_436_524" style="mask-type:alpha" maskUnits="userSpaceOnUse" x="4" y="4" width="42" height="42">
<rect x="4.54541" y="4.53488" width="40.9091" height="40.814" fill="#D9D9D9"/>
</mask>
<g mask="url(#mask0_436_524)">
<path d="M13.0681 40.2471V11.3372H28.409L29.0908 14.7384H38.6363V31.7442H26.7045L26.0227 28.343H16.4772V40.2471H13.0681ZM29.517 28.343H35.2272V18.1395H26.2783L25.5965 14.7384H16.4772V24.9419H28.8352L29.517 28.343Z" fill="white"/>
</g>
</svg>
