<?xml version="1.0" encoding="utf-8"?>
<!-- Generator: Adobe Illustrator 26.5.1, SVG Export Plug-In . SVG Version: 6.00 Build 0)  -->
<svg version="1.1" id="Calque_1" xmlns="http://www.w3.org/2000/svg" xmlns:xlink="http://www.w3.org/1999/xlink" x="0px" y="0px"
	 viewBox="0 0 20 40" style="enable-background:new 0 0 20 40;" xml:space="preserve">
<style type="text/css">
	.st0{clip-path:url(#SVGID_00000160894176082510417970000005001581040270387610_);}
	.st1{fill:#BABABA;}
</style>
<g>
	<defs>
		<rect id="SVGID_1_" x="2" y="12" width="16" height="16"/>
	</defs>
	<clipPath id="SVGID_00000079471933190824053430000007455692316367009949_">
		<use xlink:href="#SVGID_1_"  style="overflow:visible;"/>
	</clipPath>
	<g style="clip-path:url(#SVGID_00000079471933190824053430000007455692316367009949_);">
		<path class="st1" d="M10,12.2c-4.3,0-7.8,3.5-7.8,7.8c0,4.3,3.5,7.8,7.8,7.8c4.3,0,7.8-3.5,7.8-7.8C17.8,15.7,14.3,12.2,10,12.2z
			 M11.8,23.2l-2.8-2c-0.1-0.1-0.2-0.2-0.2-0.3v-5.3c0-0.2,0.2-0.4,0.4-0.4h1.5c0.2,0,0.4,0.2,0.4,0.4v4.3l2,1.4
			c0.2,0.1,0.2,0.4,0.1,0.5l-0.9,1.2C12.2,23.3,12,23.3,11.8,23.2z"/>
	</g>
</g>
</svg>
