<svg width="74" height="76" viewBox="0 0 74 76" fill="none" xmlns="http://www.w3.org/2000/svg">
<path d="M37.1001 75.5802C57.4241 75.5802 73.9001 58.8707 73.9001 38.2584C73.9001 17.6461 57.4241 0.936523 37.1001 0.936523C16.776 0.936523 0.300049 17.6461 0.300049 38.2584C0.300049 58.8707 16.776 75.5802 37.1001 75.5802Z" fill="#F3574A"/>
<path d="M47.3 35.2159C48.5 35.2159 49.6001 34.8102 50.4001 33.8974C51.3001 33.0861 51.7 31.9705 51.7 30.7535C51.7 29.5365 51.3001 28.4209 50.4001 27.6095C49.5001 26.6968 48.5 26.2911 47.3 26.2911C46.1 26.2911 45 26.6968 44.2 27.6095C43.3 28.4209 42.9001 29.5365 42.9001 30.7535C42.9001 31.9705 43.3 33.0861 44.2 33.8974C45.1 34.8102 46.1 35.2159 47.3 35.2159ZM26.8 35.2159C28 35.2159 29.1001 34.8102 29.9001 33.8974C30.8001 33.0861 31.2 31.9705 31.2 30.7535C31.2 29.5365 30.8001 28.4209 29.9001 27.6095C29.0001 26.6968 28 26.2911 26.8 26.2911C25.6 26.2911 24.5001 26.6968 23.7001 27.6095C22.8001 28.4209 22.4001 29.5365 22.4001 30.7535C22.4001 31.9705 22.8001 33.0861 23.7001 33.8974C24.5001 34.8102 25.6 35.2159 26.8 35.2159ZM37.1001 42.7207C33.8001 42.7207 30.8001 43.6335 28.0001 45.5605C26.4001 46.6761 25.0001 48.0959 23.9001 49.6172C22.9001 51.0371 23.9 53.0655 25.7 53.0655C26.4 53.0655 27.1001 52.7612 27.5001 52.1527C28.5001 50.7328 29.7 49.6172 31.2 48.7044C33 47.6902 34.9001 47.0818 37.0001 47.0818C39.1001 47.0818 41 47.5888 42.8 48.7044C44.3 49.6172 45.5001 50.7328 46.5001 52.1527C46.9001 52.7612 47.6 53.0655 48.3 53.0655C50.1 53.0655 51.1001 51.0371 50.1001 49.6172C49.0001 48.0959 47.7001 46.6761 46.0001 45.5605C43.4001 43.6335 40.4001 42.7207 37.1001 42.7207ZM37.1001 67.9739C33.0001 67.9739 29.2 67.1626 25.7 65.6413C22.1 64.12 19.0001 61.9902 16.4001 59.2519C13.8001 56.6151 11.7001 53.4711 10.1001 49.82C8.60005 46.169 7.80005 42.3152 7.80005 38.2584C7.80005 34.1003 8.60005 30.2464 10.1001 26.6968C11.6001 23.0457 13.7001 19.9017 16.4001 17.2648C19.0001 14.628 22.1 12.4983 25.7 10.8756C29.3 9.3543 33.1001 8.54291 37.1001 8.54291C41.2001 8.54291 45.0001 9.3543 48.5001 10.8756C52.1001 12.3968 55.2001 14.5265 57.8 17.2648C60.4 19.9017 62.5001 23.0457 64.1001 26.6968C65.6001 30.3478 66.4001 34.2017 66.4001 38.2584C66.4001 42.4166 65.6001 46.2704 64.1001 49.82C62.6001 53.4711 60.5 56.6151 57.8 59.2519C55.2001 61.8888 52.1001 64.0186 48.5001 65.6413C44.9001 67.1626 41.1001 67.9739 37.1001 67.9739ZM37.1001 61.9902C43.6001 61.9902 49.2 59.6576 53.7 55.0938C58.2 50.53 60.5001 44.8506 60.5001 38.2584C60.5001 31.6663 58.2 25.9868 53.7 21.4229C49.2 16.8591 43.6001 14.5266 37.1001 14.5266C30.6001 14.5266 25.0001 16.8591 20.5001 21.4229C16.0001 25.9868 13.7001 31.6663 13.7001 38.2584C13.7001 44.952 16.0001 50.53 20.5001 55.0938C25.0001 59.6576 30.5001 61.9902 37.1001 61.9902Z" fill="white"/>
</svg>
