<svg width="75" height="76" viewBox="0 0 75 76" fill="none" xmlns="http://www.w3.org/2000/svg">
<path d="M37.4 75.5802C57.7241 75.5802 74.2 58.8707 74.2 38.2584C74.2 17.6461 57.7241 0.936523 37.4 0.936523C17.0759 0.936523 0.599976 17.6461 0.599976 38.2584C0.599976 58.8707 17.0759 75.5802 37.4 75.5802Z" fill="#F9B54F"/>
<path d="M48 35.1144C49.3 35.1144 50.3 34.7088 51.2 33.796C52.1 32.8833 52.5 31.7676 52.5 30.5506C52.5 29.2322 52.1 28.218 51.2 27.3053C50.3 26.3925 49.2 25.9868 48 25.9868C46.7 25.9868 45.7 26.3925 44.8 27.3053C43.9 28.218 43.5 29.3336 43.5 30.5506C43.5 31.869 43.9 32.8833 44.8 33.796C45.7 34.7088 46.8 35.1144 48 35.1144ZM26.8 35.1144C28.1 35.1144 29.1 34.7088 30 33.796C30.9 32.8833 31.3 31.7676 31.3 30.5506C31.3 29.2322 30.9 28.218 30 27.3053C29.1 26.3925 28 25.9868 26.8 25.9868C25.5 25.9868 24.5 26.3925 23.6 27.3053C22.7 28.218 22.3 29.3336 22.3 30.5506C22.3 31.869 22.7 32.8833 23.6 33.796C24.4 34.7088 25.5 35.1144 26.8 35.1144ZM30.6 49.0087H44.3C45.6 49.0087 46.6 47.9945 46.6 46.6761C46.6 45.3577 45.6 44.3435 44.3 44.3435H30.6C29.3 44.3435 28.3 45.3577 28.3 46.6761C28.3 47.9945 29.3 49.0087 30.6 49.0087ZM37.4 68.9881C33.2 68.9881 29.2 68.1767 25.6 66.554C21.9 64.9313 18.7 62.7001 16 59.9618C13.3 57.2235 11.1 53.8768 9.49998 50.2257C7.89998 46.4732 7.09998 42.4165 7.09998 38.1569C7.09998 33.8974 7.89998 29.9422 9.49998 26.1897C11.1 22.4372 13.3 19.1918 16 16.3521C18.7 13.6138 21.9 11.3826 25.6 9.75989C29.3 8.1372 33.2 7.32596 37.4 7.32596C41.6 7.32596 45.6 8.1372 49.2 9.75989C52.9 11.3826 56.1 13.6138 58.8 16.3521C61.5 19.0904 63.7 22.4372 65.3 26.1897C66.9 29.9422 67.7 33.9988 67.7 38.1569C67.7 42.4165 66.9 46.4732 65.3 50.2257C63.7 53.9782 61.5 57.2235 58.8 59.9618C56.1 62.7001 52.9 64.9313 49.2 66.554C45.6 68.1767 41.6 68.9881 37.4 68.9881ZM37.4 62.903C44.2 62.903 49.9 60.5704 54.6 55.7023C59.3 50.9357 61.7 45.0535 61.7 38.2585C61.7 31.362 59.3 25.5811 54.6 20.8145C49.9 16.0478 44.1 13.6138 37.4 13.6138C30.7 13.6138 24.9 16.0478 20.2 20.8145C15.5 25.5811 13.1 31.4635 13.1 38.2585C13.1 45.1549 15.5 50.9357 20.2 55.7023C24.9 60.469 30.6 62.903 37.4 62.903Z" fill="white"/>
</svg>
