<svg width="74" height="76" viewBox="0 0 74 76" fill="none" xmlns="http://www.w3.org/2000/svg">
<path d="M36.8 75.5802C57.1241 75.5802 73.6 58.8707 73.6 38.2584C73.6 17.6461 57.1241 0.936523 36.8 0.936523C16.4759 0.936523 0 17.6461 0 38.2584C0 58.8707 16.4759 75.5802 36.8 75.5802Z" fill="#5ABFAD"/>
<path d="M47.4 35.4187C48.7 35.4187 49.7 35.013 50.6 34.1002C51.5 33.1874 51.9 32.0719 51.9 30.8549C51.9 29.5364 51.5 28.5223 50.6 27.6096C49.7 26.6968 48.6 26.2911 47.4 26.2911C46.2 26.2911 45.1 26.6968 44.2 27.6096C43.3 28.5223 42.9 29.6379 42.9 30.8549C42.9 32.1733 43.3 33.1874 44.2 34.1002C45.1 35.013 46.1 35.4187 47.4 35.4187ZM26.2 35.4187C27.5 35.4187 28.5 35.013 29.4 34.1002C30.3 33.1874 30.7 32.0719 30.7 30.8549C30.7 29.5364 30.3 28.5223 29.4 27.6096C28.5 26.6968 27.4 26.2911 26.2 26.2911C24.9 26.2911 23.9 26.6968 23 27.6096C22.1 28.5223 21.7 29.6379 21.7 30.8549C21.7 32.1733 22.1 33.1874 23 34.1002C23.8 35.013 24.9 35.4187 26.2 35.4187ZM36.8 55.4995C40.2 55.4995 43.4 54.4853 46.2 52.5584C47.9 51.3413 49.3 50.0229 50.4 48.4002C51.5 46.879 50.4 44.7491 48.5 44.7491C47.8 44.7491 47.1 45.0534 46.7 45.6619C45.7 47.0817 44.4 48.2988 42.9 49.2115C41.1 50.3271 39 50.8342 36.9 50.8342C34.7 50.8342 32.7 50.3271 30.9 49.2115C29.4 48.2988 28.1 47.0817 27.1 45.6619C26.7 45.0534 26 44.7491 25.3 44.7491C23.5 44.7491 22.4 46.879 23.4 48.4002C24.5 50.0229 25.9 51.4428 27.6 52.5584C30.2 54.4853 33.3 55.4995 36.8 55.4995ZM36.8 69.2923C32.6 69.2923 28.7 68.481 25 66.8583C21.3 65.2356 18.1 63.0044 15.4 60.2661C12.7 57.5278 10.5 54.2825 8.9 50.53C7.3 46.7775 6.5 42.8222 6.5 38.5626C6.5 34.3031 7.3 30.3478 8.9 26.5954C10.5 22.8429 12.7 19.5974 15.4 16.8591C18.1 14.1209 21.3 11.8897 25 10.267C28.7 8.64428 32.6 7.83304 36.8 7.83304C41 7.83304 44.9 8.64428 48.6 10.267C52.3 11.8897 55.5 14.1209 58.2 16.8591C60.9 19.5974 63.1 22.8429 64.7 26.5954C66.3 30.3478 67.1 34.3031 67.1 38.5626C67.1 42.8222 66.3 46.879 64.7 50.53C63.1 54.2825 60.9 57.5278 58.2 60.2661C55.5 63.0044 52.3 65.2356 48.6 66.8583C44.9 68.481 41 69.2923 36.8 69.2923ZM36.8 63.2073C43.6 63.2073 49.3 60.8747 54 56.0066C58.7 51.24 61.1 45.4591 61.1 38.5626C61.1 31.6662 58.7 25.8854 54 21.1188C49.3 16.3521 43.6 13.9181 36.8 13.9181C30 13.9181 24.3 16.2507 19.6 21.1188C14.9 25.8854 12.5 31.6662 12.5 38.5626C12.5 45.4591 14.9 51.24 19.6 56.0066C24.3 60.7733 30 63.2073 36.8 63.2073Z" fill="white"/>
</svg>
