<?xml version="1.0" encoding="utf-8"?>
<!-- Generator: Adobe Illustrator 26.5.1, SVG Export Plug-In . SVG Version: 6.00 Build 0)  -->
<svg version="1.1" id="Calque_1" xmlns="http://www.w3.org/2000/svg" xmlns:xlink="http://www.w3.org/1999/xlink" x="0px" y="0px"
	 viewBox="0 0 297.6 226.8" style="enable-background:new 0 0 297.6 226.8;" xml:space="preserve">
<style type="text/css">
	.st0{fill:#FFFFFF;stroke:#2577C0;stroke-width:5;}
	.st1{fill:#2577C0;}
	.st2{fill:#2577C0;stroke:#2577C0;}
	.st3{fill-rule:evenodd;clip-rule:evenodd;fill:#2577C0;}
</style>
<path class="st0" d="M61.6,81c17.9-2.9,30-20.1,27.1-38.2c-3-18.2-19.9-30.5-37.9-27.6c-17.9,2.9-30,20.1-27.1,38.2
	C26.7,71.6,43.6,84,61.6,81z"/>
<path class="st1" d="M35,64.9l15-40.4c0.7-1.9,3.2-2.3,4.4-0.7l27.1,33.5c1.2,1.5,0.4,4-1.6,4.3l-42.2,6.9
	C35.8,68.7,34.2,66.8,35,64.9z M40.6,63.2l35-5.7L53.1,29.7L40.6,63.2z M57.8,58c0.6-0.1,1.2-0.4,1.6-1c0.4-0.5,0.5-1.1,0.4-1.8
	c-0.1-0.6-0.5-1.2-1-1.6c-0.5-0.4-1.1-0.6-1.8-0.4c-0.6,0.1-1.2,0.5-1.6,1s-0.5,1.1-0.4,1.8c0.1,0.7,0.5,1.2,1,1.6
	C56.5,57.9,57.1,58.1,57.8,58z M56.5,50.9l0.2,0c1.2-0.2,2-1.3,1.8-2.6L57,38.8c-0.2-1.3-1.3-2.1-2.6-1.9l-0.2,0
	c-1.2,0.2-2,1.3-1.8,2.6L54,49C54.1,50.2,55.3,51.1,56.5,50.9z"/>
<path class="st0" d="M80,209.7c12.5,3.8,25.8-3.4,29.6-16.1c3.9-12.7-3.2-26-15.7-29.8c-12.5-3.8-25.8,3.4-29.6,16.1
	C60.4,192.5,67.5,205.9,80,209.7z"/>
<path class="st1" d="M103,175.4c-4-6.4-24.8,12.7-31.6,19.3c-0.5,0.5,0,1.3,0.7,1c0.6-0.2,1.2-0.5,1.9-0.7l0,0
	C87.6,189.7,107.3,182.2,103,175.4z"/>
<path class="st1" d="M102.8,196.2c-0.2-4-13.5-1.1-19.5,0.5c-0.7,0.2-0.6,1.1,0.1,1.2C91.5,199.1,103,200.8,102.8,196.2z"/>
<path class="st1" d="M86,203.6c-0.6-0.3-0.4-1.2,0.3-1.1c3,0.3,7,0.9,6.7,2.4C92.5,206.5,89.1,205.1,86,203.6z"/>
<path class="st1" d="M71.4,179.4c-1.4-0.3-2.1,3.7-2.3,6.7c-0.1,0.7,0.9,0.9,1.2,0.3C71.7,183.3,73,179.8,71.4,179.4z"/>
<path class="st1" d="M74.6,183.2c2-4.5,5.9-12.4,8.2-10.9c2.6,1.8-2.9,7.3-7.2,11.6C75.2,184.4,74.4,183.9,74.6,183.2z"/>
<path class="st0" d="M149.6,139.6c19.5,2.3,37.2-11.8,39.6-31.5c2.4-19.8-11.5-37.7-31-40c-19.5-2.3-37.2,11.8-39.6,31.5
	C116.2,119.4,130.1,137.3,149.6,139.6z"/>
<path class="st2" d="M156.1,84.7L156.1,84.7c-0.6,4.6-3.3,8.5-7.2,10.8c-3.3,1.9-5.2,4.5-5.6,7.9c-0.4,3.4,0.7,6.4,3.5,9
	c3.4,3.2,5.1,7.9,4.5,12.7l-0.5,4c-0.1,0.6-0.6,1-1.1,0.9c-0.6-0.1-0.9-0.6-0.9-1.1l0.5-4c0.5-4-1-8.1-3.9-10.8l0,0l0,0
	c-3.2-3-4.6-6.7-4.1-10.7c0.5-4,2.7-7.2,6.5-9.4l0,0c3.5-2,5.8-5.6,6.3-9.7l0-0.4l0.1-1.2l-1,0.8l-3.1,2.4c-0.5,0.4-1.1,0.3-1.4-0.1
	l0,0l0,0c-0.4-0.5-0.3-1.1,0.1-1.4l0,0l0,0l5.8-4.7c0.5-0.4,1.1-0.3,1.4,0.1l0,0l0,0l4.6,5.9c0.4,0.5,0.3,1.1-0.1,1.4l0,0l0,0
	c-0.5,0.4-1.1,0.3-1.4-0.1l0,0l0,0l-2.2-2.8l0-0.1l-0.1,0l-0.1-0.2l-0.7-1l-0.1,1.2l0,0.3L156.1,84.7z M160.6,105.4
	c-0.4,3.5-3.6,6.1-7,5.6c-3.4-0.4-5.9-3.6-5.5-7.1c0.4-3.5,3.6-6.1,7-5.6C158.5,98.7,161,101.9,160.6,105.4z"/>
<path class="st0" d="M228.7,201.4c12.6-3.4,20.1-16.5,16.6-29.3c-3.4-12.8-16.5-20.4-29.1-17c-12.6,3.4-20.1,16.5-16.6,29.3
	C203,197.2,216,204.8,228.7,201.4z"/>
<path class="st3" d="M211.8,171.3l-1.3-4.9c-0.2-0.8,0.2-1.6,1-1.8c0.8-0.2,1.6,0.2,1.8,1l1.3,4.9c0.2,0.8-0.2,1.6-1,1.8
	C212.8,172.6,212,172.1,211.8,171.3z M215,182.9l-1.3-4.9c-0.2-0.8,0.2-1.6,1-1.8c0.8-0.2,1.6,0.2,1.8,1l1.3,4.9
	c0.2,0.8-0.2,1.6-1,1.8C216,184.2,215.2,183.7,215,182.9z M218.1,194.4l-1.3-4.9c-0.2-0.8,0.2-1.6,1-1.8c0.8-0.2,1.6,0.2,1.8,1
	l1.3,4.9c0.2,0.8-0.2,1.6-1,1.8C219.1,195.7,218.3,195.2,218.1,194.4z M225.9,170.4l-2-7.5c-0.2-0.8,0.2-1.7,1-1.8l-0.1,0
	c0.8-0.2,1.6,0.2,1.8,1l2,7.5c0.2,0.8-0.2,1.6-1,1.8C226.9,171.7,226.2,171.2,225.9,170.4z M227.7,171.5L227.7,171.5L227.7,171.5
	L227.7,171.5z M225.1,189.4l-0.2-0.9l10.9-2.9l0.2,0.9c0.1,0.2,0.2,0.4,0.5,0.6c0.2,0.1,0.5,0.2,0.8,0.1l0.9-0.2
	c0.3-0.1,0.5-0.3,0.6-0.5c0.1-0.2,0.2-0.4,0.1-0.7l-2-7.4l-3.4-5c-0.2-0.3-0.4-0.4-0.7-0.5c-0.3-0.1-0.6-0.1-0.8,0l-10.1,2.7
	c-0.3,0.1-0.5,0.2-0.7,0.4c-0.2,0.2-0.3,0.5-0.3,0.8l-0.4,6.1l2,7.4c0.1,0.2,0.2,0.4,0.4,0.6c0.2,0.1,0.5,0.2,0.8,0.1l0.9-0.2
	c0.3-0.1,0.5-0.3,0.6-0.5C225.1,189.8,225.2,189.6,225.1,189.4z M233.8,177.1l-11.4,3.1l0.2-3.1l9.5-2.6L233.8,177.1z M226.4,184.7
	c-0.1,0.3-0.5,0.6-0.8,0.7s-0.7,0-1.1-0.1c-0.4-0.2-0.5-0.5-0.7-0.9c-0.1-0.4-0.1-0.7,0.1-1.1c0.1-0.3,0.5-0.6,0.8-0.7
	c0.3-0.1,0.7-0.1,1.1,0.1c0.4,0.2,0.5,0.5,0.7,0.9C226.6,184,226.6,184.3,226.4,184.7z M234.7,182.4c-0.1,0.3-0.5,0.6-0.8,0.7
	c-0.4,0.1-0.8,0-1.1-0.1c-0.4-0.2-0.5-0.5-0.7-0.9c-0.1-0.4-0.1-0.7,0.1-1.1c0.1-0.3,0.5-0.6,0.8-0.7c0.3-0.1,0.7-0.1,1.1,0.1
	c0.4,0.2,0.5,0.5,0.7,0.9C234.9,181.8,234.9,182.1,234.7,182.4z M236.3,183.4l-12.9,3.5l-1.2-4.6l12.9-3.5L236.3,183.4z
	 M231.5,190.9l-0.2-0.7c-0.2-0.7,0.2-1.5,1-1.7l0.1,0c0.7-0.2,1.5,0.3,1.7,1l0.2,0.7c0.2,0.7-0.2,1.5-1,1.7l-0.1,0
	C232.5,192.1,231.7,191.6,231.5,190.9z"/>
<path class="st0" d="M233,116.2c16.4,4.4,33.3-5.5,37.8-22.2c4.5-16.7-5.2-33.7-21.6-38.1s-33.3,5.5-37.8,22.2
	S216.6,111.8,233,116.2z"/>
<path class="st3" d="M224.4,96.3l3.7-13.7l-0.2-0.6c-0.2-0.4-0.4-0.9-0.5-1.5c-0.1-0.5,0-1,0.1-1.5c0.1-0.5,0.3-0.9,0.7-1.4
	c0.3-0.4,0.7-0.8,1.1-1l6.6-3.9c0.8-0.5,1.7-0.6,2.6-0.3l6.1,1.6l4.6-2.7c2.6-1.5,6.1-0.7,7.6,2c0.7,1.3,1.3,2.6,1.6,4
	c0.2,0.7,0.1,1.4-0.2,2l-1,2.2l-2.4-1.8l-0.6,3.2l-2.5-1.7l-0.8,3l-2.7-1.5l-1,2.3l0.9,1.9l2-2.4l1.7,2.1l1.6-2.7l1.9,2.5l1.6-2.7
	l0.9,2.2c0.1,0.4,0.1,0.9-0.1,1.3l-0.4,0.9c-0.2,0.5-0.5,0.8-0.9,1.1l-9.3,5.8l-1.8,6.9c-0.3,1-1.2,1.5-2.2,1.3l-17.2-4.6
	C224.7,98.3,224.2,97.3,224.4,96.3z M254.3,75.2c0.4,0.7,0.7,1.4,0.9,2.1l-8.8,3.4c-0.4,0.2-0.7,0.4-0.9,0.8l-1,2.1
	c-0.3,0.4-0.3,1-0.1,1.4l1.1,2.9c0.2,0.5,0.6,0.9,1.2,1.1l1.8,0.5l-3.7,2.3c-0.6,0.4-1,0.9-1.1,1.5l-1.6,5.9l-13.9-3.7l2.2-8.3
	l3.5,5.4c0.5,1,1.8,1.1,2.7,0.4c0.4-0.3,0.8-0.8,1.1-1.2c0.8-1,1.3-2.2,1.6-3.4c0.4-1.6,0.4-3.2,0-4.8c-0.2-1-0.6-1.9-1.1-2.8
	l-2.5-4.1l1.8-1.3l2.9,0.8c-0.4,0.3-0.7,0.8-0.9,1.3c-0.4,1.3,0.4,2.7,1.7,3c1.3,0.4,2.7-0.4,3-1.8c0.2-0.6,0.1-1.2-0.2-1.8
	c0.7,0,1.3-0.2,1.9-0.5l4.9-2.7C252.4,73,253.7,73.9,254.3,75.2z"/>
</svg>
