<?xml version="1.0" encoding="utf-8"?>
<!-- Generator: Adobe Illustrator 26.5.1, SVG Export Plug-In . SVG Version: 6.00 Build 0)  -->
<svg version="1.1" id="Calque_1" xmlns="http://www.w3.org/2000/svg" xmlns:xlink="http://www.w3.org/1999/xlink" x="0px" y="0px"
	 viewBox="0 0 297.6 226.8" style="enable-background:new 0 0 297.6 226.8;" xml:space="preserve">
<style type="text/css">
	.st0{fill:#F3574A;}
	.st1{fill:#FFFFFF;}
	.st2{fill:#E6A84B;}
	.st3{fill:#5ABFAD;}
</style>
<path class="st0" d="M80.4,186.2c17.6-10,23.6-32.6,13.5-50.4c-10.1-17.9-32.6-24.3-50.2-14.3c-17.6,10-23.6,32.6-13.5,50.4
	C40.3,189.8,62.8,196.2,80.4,186.2z"/>
<path class="st1" d="M69.3,146.2c1-0.6,1.8-1.5,2-2.7c0.4-1.1,0.2-2.3-0.4-3.4c-0.6-1.1-1.5-1.8-2.7-2.1c-1.2-0.3-2.3-0.2-3.3,0.4
	c-1,0.6-1.8,1.5-2,2.7c-0.4,1.1-0.2,2.3,0.4,3.4c0.6,1.1,1.5,1.8,2.7,2.1C67.2,146.9,68.3,146.8,69.3,146.2z M51.6,156.2
	c1-0.6,1.8-1.5,2-2.7c0.4-1.1,0.2-2.3-0.4-3.4c-0.6-1.1-1.5-1.8-2.7-2.1c-1.2-0.3-2.3-0.2-3.3,0.4c-1,0.6-1.8,1.5-2,2.7
	c-0.4,1.1-0.2,2.3,0.4,3.4c0.6,1.1,1.5,1.8,2.7,2.1C49.4,157,50.6,156.8,51.6,156.2z M64.2,157.7c-2.9,1.6-5,3.9-6.5,6.9
	c-0.8,1.8-1.3,3.7-1.5,5.5c-0.2,1.7,1.7,3,3.3,2.1c0.6-0.3,1.1-1,1.1-1.7c0.2-1.7,0.7-3.3,1.5-4.8c1.1-1.8,2.4-3.2,4.2-4.3
	c1.8-1,3.7-1.5,5.8-1.4c1.7,0.1,3.3,0.4,4.9,1.2c0.6,0.3,1.4,0.3,2-0.1c1.6-0.9,1.4-3.1-0.1-3.9c-1.7-0.8-3.5-1.4-5.5-1.5
	C70.1,155.4,67.1,156.1,64.2,157.7z M76.7,179.6c-3.5,2-7.2,3.2-11,3.6c-3.9,0.4-7.6,0.1-11.2-1c-3.5-1-6.9-2.7-10.1-5.1
	c-3.1-2.4-5.7-5.4-7.7-8.9c-2-3.6-3.3-7.3-3.7-11.2c-0.5-3.9-0.2-7.7,0.8-11.3c1-3.6,2.6-6.9,4.9-10.1c2.4-3.1,5.3-5.7,8.7-7.6
	c3.5-2,7.2-3.2,11-3.6c3.9-0.4,7.6-0.1,11.2,1c3.5,1,6.9,2.7,10.1,5.1c3.1,2.4,5.7,5.4,7.7,8.9c2,3.6,3.3,7.3,3.7,11.2
	c0.5,3.9,0.2,7.7-0.8,11.3c-1,3.6-2.6,6.9-4.9,10.1C83,175.1,80.1,177.6,76.7,179.6z M73.7,174.4c5.6-3.2,9.3-8,11-14.1
	c1.6-6.2,0.8-12.2-2.4-17.9c-3.2-5.7-8-9.5-14.2-11.3c-6.1-1.7-12.1-1-17.8,2.2c-5.6,3.2-9.3,8-11,14.1c-1.6,6.2-0.8,12.2,2.4,17.9
	c3.3,5.8,8,9.5,14.2,11.3S68,177.6,73.7,174.4z"/>
<path class="st2" d="M130.3,80.8c17.4,4.7,35.3-5.9,40.1-23.6s-5.5-35.8-22.9-40.4c-17.4-4.7-35.3,5.9-40.1,23.6
	S112.9,76.2,130.3,80.8z"/>
<path class="st1" d="M148.7,48.6c1.1,0.3,2.1,0.2,3-0.4c1-0.6,1.6-1.4,1.9-2.5c0.3-1.1,0.2-2.1-0.4-3.1c-0.6-1-1.4-1.6-2.4-1.9
	c-1.1-0.3-2.1-0.2-3,0.4c-1,0.6-1.6,1.4-1.9,2.5c-0.3,1.1-0.2,2.1,0.4,3.1C146.8,47.7,147.6,48.3,148.7,48.6z M130.5,43.7
	c1.1,0.3,2.1,0.2,3-0.4c1-0.6,1.6-1.4,1.9-2.5c0.3-1.1,0.2-2.1-0.4-3.1c-0.6-1-1.4-1.6-2.4-1.9c-1.1-0.3-2.1-0.2-3,0.4
	c-1,0.6-1.6,1.4-1.9,2.5c-0.3,1.1-0.2,2.1,0.4,3.1C128.6,42.8,129.4,43.4,130.5,43.7z M130.6,56.5l11.7,3.1c1.1,0.3,2.2-0.3,2.5-1.5
	c0.3-1.1-0.3-2.2-1.4-2.5l-11.7-3.1c-1.1-0.3-2.2,0.3-2.5,1.5C128.9,55.1,129.5,56.2,130.6,56.5z M131.8,75.2
	c-3.6-1-6.8-2.6-9.5-4.8c-2.8-2.2-5-4.9-6.7-7.9c-1.7-3-2.8-6.3-3.3-9.8c-0.5-3.6-0.3-7.2,0.7-10.9c1-3.7,2.6-6.9,4.8-9.7
	c2.2-2.9,4.9-5.1,7.8-6.9c2.9-1.7,6.2-2.9,9.7-3.5c3.5-0.5,7.1-0.3,10.7,0.6c3.6,1,6.8,2.6,9.5,4.8c2.8,2.2,5,4.9,6.7,7.9
	c1.7,3,2.8,6.3,3.3,9.9s0.3,7.2-0.7,10.8c-1,3.7-2.6,6.9-4.8,9.8c-2.2,2.9-4.9,5.1-7.8,6.9c-2.9,1.7-6.2,2.9-9.7,3.5
	C139,76.4,135.4,76.1,131.8,75.2z M133.2,70c5.8,1.6,11.2,0.9,16.4-2.2c5.1-3,8.5-7.5,10.1-13.3c1.6-5.9,0.9-11.4-2.1-16.6
	c-2.9-5.2-7.3-8.6-13.1-10.1c-5.7-1.5-11.3-0.8-16.4,2.2c-5.1,3-8.5,7.5-10.1,13.3c-1.6,5.9-0.9,11.4,2.1,16.6
	C123.1,65,127.4,68.4,133.2,70z"/>
<path class="st3" d="M201.3,198c24,11.1,52.7,0.4,64-24c11.3-24.4,1-53.2-23-64.4s-52.7-0.4-64,24C167,158,177.3,186.8,201.3,198z"
	/>
<path class="st1" d="M235.9,156.2c1.5,0.7,2.9,0.8,4.5,0.2s2.7-1.7,3.3-3.1c0.7-1.6,0.8-3,0.2-4.6c-0.6-1.6-1.6-2.7-3.1-3.3
	c-1.4-0.7-2.9-0.8-4.5-0.2s-2.7,1.7-3.3,3.1c-0.7,1.6-0.8,3-0.2,4.6C233.4,154.5,234.4,155.5,235.9,156.2z M210.8,144.6
	c1.5,0.7,2.9,0.8,4.5,0.2c1.6-0.6,2.6-1.7,3.3-3.1c0.7-1.6,0.8-3,0.2-4.6c-0.6-1.6-1.6-2.7-3.1-3.3c-1.5-0.7-2.9-0.8-4.5-0.2
	c-1.6,0.6-2.7,1.7-3.3,3.1c-0.7,1.6-0.8,3-0.2,4.6C208.2,142.8,209.3,143.9,210.8,144.6z M212.3,174.2c4,1.9,8.4,2.4,12.7,1.7
	c2.7-0.5,5.1-1.3,7.2-2.6c2.1-1.2,2-4.3-0.2-5.4c-0.8-0.4-1.8-0.4-2.6,0.1c-2,1.1-4.2,1.9-6.4,2.1c-2.7,0.3-5.5-0.2-8-1.4
	c-2.6-1.2-4.7-2.9-6.2-5.2c-1.3-1.9-2.1-4.1-2.5-6.3c-0.1-0.9-0.8-1.7-1.6-2.1c-2.1-1-4.6,0.9-4.3,3.3c0.4,2.5,1.3,5,2.7,7.2
	C205.1,169.4,208.2,172.3,212.3,174.2z M204.8,190.5c-5-2.3-9.1-5.4-12.6-9.4c-3.5-3.9-6-8.3-7.7-13.1c-1.7-4.7-2.5-9.8-2.3-15.1
	c0.2-5.3,1.4-10.4,3.7-15.5c2.3-5,5.5-9.3,9.4-12.9c4-3.6,8.3-6.2,13-8c4.7-1.8,9.7-2.7,15-2.5c5.3,0.1,10.3,1.3,15.3,3.6
	c5,2.3,9.1,5.4,12.6,9.4c3.5,3.9,6,8.3,7.7,13.1c1.7,4.7,2.5,9.8,2.3,15.1c-0.2,5.3-1.4,10.4-3.7,15.5c-2.3,5-5.5,9.4-9.4,12.9
	c-4,3.6-8.3,6.2-13,8c-4.7,1.8-9.7,2.7-15,2.5C214.8,194,209.7,192.8,204.8,190.5z M208.1,183.3c8,3.7,16.1,4.1,24.3,0.9
	c8.2-3.1,14.2-8.6,18-16.8c3.8-8.2,4.1-16.3,1.2-24.6c-2.9-8.2-8.3-14.2-16.4-18c-8-3.7-16.1-4.1-24.3-0.9
	c-8.2,3.1-14.2,8.6-18,16.8c-3.8,8.2-4.1,16.3-1.2,24.6C194.7,173.6,200.1,179.6,208.1,183.3z"/>
</svg>
