<svg width="30" height="26" viewBox="0 0 30 26" fill="none" xmlns="http://www.w3.org/2000/svg">
<path fill-rule="evenodd" clip-rule="evenodd" d="M10.7308 14.9224C9.58923 13.7837 8.17906 13.2255 6.50028 13.2255C4.82151 13.2255 3.41133 13.7837 2.26976 14.9224C1.12819 16.061 0.568604 17.4676 0.568604 19.1422C0.568604 20.8167 1.12819 22.2233 2.26976 23.362C2.31453 23.4066 2.35929 23.4513 2.40406 23.4736C2.73981 23.8085 3.12033 24.0988 3.52324 24.322C4.21714 24.7239 5.00058 24.9472 5.82877 25.0142C6.05261 25.0365 6.27644 25.0365 6.52266 25.0365C8.20144 25.0365 9.61162 24.4783 10.7532 23.3396C11.8948 22.201 12.4543 20.7944 12.4543 19.1198C12.432 17.4676 11.8724 16.061 10.7308 14.9224ZM27.3843 14.9224C26.2427 13.7837 24.8325 13.2255 23.1537 13.2255C21.475 13.2255 20.0648 13.7837 18.9232 14.9224C17.7817 16.061 17.2221 17.4676 17.2221 19.1422C17.2221 20.8167 17.7817 22.2233 18.9232 23.362C20.0648 24.5007 21.475 25.0588 23.1537 25.0588C23.5119 25.0588 23.8476 25.0365 24.161 24.9918C24.4296 24.9472 24.6982 24.9025 24.9668 24.8132C25.8846 24.5453 26.6904 24.0541 27.4067 23.362C28.5482 22.2233 29.1078 20.8167 29.1078 19.1422C29.1078 17.4676 28.5258 16.061 27.3843 14.9224ZM9.09679 17.5123C9.38778 18.0258 9.52208 18.6286 9.52208 19.3431C9.52208 20.0352 9.38778 20.6381 9.09679 21.1739C8.82818 21.6874 8.44767 22.0893 7.95522 22.3796C7.48517 22.6698 6.94795 22.8038 6.36597 22.8038C5.784 22.8038 5.24679 22.6698 4.77674 22.3796C4.30668 22.0893 3.92615 21.6874 3.63516 21.1739C3.36655 20.6381 3.20988 20.0352 3.20988 19.3431C3.20988 18.6286 3.34417 18.0258 3.63516 17.5123C3.92615 16.9764 4.30668 16.5746 4.77674 16.2843C5.26918 15.9941 5.784 15.8601 6.36597 15.8601C6.94795 15.8601 7.46278 16.0164 7.95522 16.2843C8.42528 16.5746 8.8058 16.9764 9.09679 17.5123ZM26.3994 19.3431C26.3994 18.6286 26.2427 18.0258 25.9741 17.5123C25.7055 16.9764 25.325 16.5746 24.8325 16.2843C24.3625 15.9941 23.8253 15.8601 23.2433 15.8601C22.6613 15.8601 22.1241 16.0164 21.654 16.2843C21.184 16.5746 20.8035 16.9764 20.5125 17.5123C20.2439 18.0258 20.0872 18.6286 20.0872 19.3431C20.0872 20.0352 20.2215 20.6381 20.5125 21.1739C20.8035 21.6874 21.184 22.0893 21.654 22.3796C22.1465 22.6698 22.6613 22.8038 23.2433 22.8038C23.8253 22.8038 24.3401 22.6698 24.8325 22.3796C25.325 22.0893 25.7055 21.6874 25.9741 21.1739C26.2651 20.6381 26.3994 20.0352 26.3994 19.3431Z" fill="#57A9F2"/>
<path fill-rule="evenodd" clip-rule="evenodd" d="M17.2909 4.16006C17.7735 4.64272 18.3481 4.87255 19.0147 4.87255C19.6812 4.87255 20.2558 4.64272 20.7384 4.16006C21.2211 3.6774 21.4509 3.10281 21.4509 2.43628C21.4509 1.76975 21.2211 1.19516 20.7384 0.712497C20.2558 0.229839 19.6812 0 19.0147 0C18.3481 0 17.7735 0.229839 17.2909 0.712497C16.8082 1.19516 16.5784 1.76975 16.5784 2.43628C16.5784 3.10281 16.8082 3.6774 17.2909 4.16006Z" fill="#57A9F2"/>
<path fill-rule="evenodd" clip-rule="evenodd" d="M16.0228 13.8468L13.3253 10.9971L16.2764 8.00723L17.2679 9.01164C18.0748 9.82918 18.974 10.4599 20.0346 10.927C21.0721 11.3942 22.248 11.6278 23.5392 11.6278V9.15179C22.6169 9.15179 21.7869 8.98828 21.0491 8.6379C20.3113 8.28753 19.6657 7.84372 19.1124 7.28312L16.7837 4.92393C16.507 4.64363 16.2303 4.45676 15.9306 4.33997C15.6309 4.22318 15.3081 4.17647 14.9392 4.17647C14.5703 4.17647 14.2475 4.22318 13.9478 4.33997C13.648 4.45676 13.3714 4.64363 13.0947 4.92393L9.65931 8.40432C9.38264 8.68462 9.19819 8.94157 9.08291 9.19851C8.96762 9.45545 8.92151 9.78246 8.92151 10.1562C8.92151 10.5299 8.96762 10.8569 9.08291 11.1139C9.17513 11.3942 9.38264 11.6511 9.65931 11.8847L13.5789 15.3651V21.5784H16.0228V13.8468Z" fill="#57A9F2"/>
</svg>
