<svg width="30" height="26" viewBox="0 0 30 26" fill="none" xmlns="http://www.w3.org/2000/svg">
<path fill-rule="evenodd" clip-rule="evenodd" d="M10.7308 15.8635C9.58923 14.7248 8.17906 14.1667 6.50028 14.1667C4.82151 14.1667 3.41133 14.7248 2.26976 15.8635C1.12819 17.0022 0.568604 18.4088 0.568604 20.0833C0.568604 21.7578 1.12819 23.1645 2.26976 24.3031C2.31453 24.3478 2.35929 24.3924 2.40406 24.4148C2.73981 24.7497 3.12033 25.0399 3.52324 25.2632C4.21714 25.6651 5.00058 25.8884 5.82877 25.9553C6.05261 25.9777 6.27644 25.9777 6.52266 25.9777C8.20144 25.9777 9.61162 25.4195 10.7532 24.2808C11.8948 23.1421 12.4543 21.7355 12.4543 20.061C12.432 18.4088 11.8724 17.0022 10.7308 15.8635ZM27.3843 15.8635C26.2427 14.7248 24.8325 14.1667 23.1537 14.1667C21.475 14.1667 20.0648 14.7248 18.9232 15.8635C17.7817 17.0022 17.2221 18.4088 17.2221 20.0833C17.2221 21.7578 17.7817 23.1645 18.9232 24.3031C20.0648 25.4418 21.475 26 23.1537 26C23.5119 26 23.8476 25.9777 24.161 25.933C24.4296 25.8884 24.6982 25.8437 24.9668 25.7544C25.8846 25.4865 26.6904 24.9953 27.4067 24.3031C28.5482 23.1645 29.1078 21.7578 29.1078 20.0833C29.1078 18.4088 28.5258 17.0022 27.3843 15.8635ZM9.09679 18.4534C9.38778 18.967 9.52208 19.5698 9.52208 20.2843C9.52208 20.9764 9.38778 21.5792 9.09679 22.1151C8.82818 22.6286 8.44767 23.0305 7.95522 23.3207C7.48517 23.611 6.94795 23.745 6.36597 23.745C5.784 23.745 5.24679 23.611 4.77674 23.3207C4.30668 23.0305 3.92615 22.6286 3.63516 22.1151C3.36655 21.5792 3.20988 20.9764 3.20988 20.2843C3.20988 19.5698 3.34417 18.967 3.63516 18.4534C3.92615 17.9176 4.30668 17.5157 4.77674 17.2255C5.26918 16.9352 5.784 16.8012 6.36597 16.8012C6.94795 16.8012 7.46278 16.9575 7.95522 17.2255C8.42528 17.5157 8.8058 17.9176 9.09679 18.4534ZM26.3994 20.2843C26.3994 19.5698 26.2427 18.967 25.9741 18.4534C25.7055 17.9176 25.325 17.5157 24.8325 17.2255C24.3625 16.9352 23.8253 16.8012 23.2433 16.8012C22.6613 16.8012 22.1241 16.9575 21.654 17.2255C21.184 17.5157 20.8035 17.9176 20.5125 18.4534C20.2439 18.967 20.0872 19.5698 20.0872 20.2843C20.0872 20.9764 20.2215 21.5792 20.5125 22.1151C20.8035 22.6286 21.184 23.0305 21.654 23.3207C22.1465 23.611 22.6613 23.745 23.2433 23.745C23.8253 23.745 24.3401 23.611 24.8325 23.3207C25.325 23.0305 25.7055 22.6286 25.9741 22.1151C26.2651 21.5792 26.3994 20.9764 26.3994 20.2843Z" fill="#5ABFAD"/>
<path fill-rule="evenodd" clip-rule="evenodd" d="M17.2909 5.10122C17.7735 5.58388 18.3481 5.81371 19.0147 5.81371C19.6812 5.81371 20.2558 5.58388 20.7384 5.10122C21.2211 4.61856 21.4509 4.04397 21.4509 3.37744C21.4509 2.71091 21.2211 2.13632 20.7384 1.65366C20.2558 1.171 19.6812 0.941162 19.0147 0.941162C18.3481 0.941162 17.7735 1.171 17.2909 1.65366C16.8082 2.13632 16.5784 2.71091 16.5784 3.37744C16.5784 4.04397 16.8082 4.61856 17.2909 5.10122Z" fill="#5ABFAD"/>
<path fill-rule="evenodd" clip-rule="evenodd" d="M16.0228 14.788L13.3253 11.9383L16.2764 8.9484L17.2679 9.95281C18.0748 10.7703 18.974 11.401 20.0346 11.8682C21.0721 12.3354 22.248 12.5689 23.5392 12.5689V10.093C22.6169 10.093 21.7869 9.92945 21.0491 9.57907C20.3113 9.2287 19.6657 8.78489 19.1124 8.22429L16.7837 5.8651C16.507 5.5848 16.2303 5.39793 15.9306 5.28114C15.6309 5.16435 15.3081 5.11763 14.9392 5.11763C14.5703 5.11763 14.2475 5.16435 13.9478 5.28114C13.648 5.39793 13.3714 5.5848 13.0947 5.8651L9.65931 9.34549C9.38264 9.62579 9.19819 9.88273 9.08291 10.1397C8.96762 10.3966 8.92151 10.7236 8.92151 11.0974C8.92151 11.4711 8.96762 11.7981 9.08291 12.0551C9.17513 12.3354 9.38264 12.5923 9.65931 12.8259L13.5789 16.3063V22.5196H16.0228V14.788Z" fill="#5ABFAD"/>
</svg>
