<svg width="37" height="48" viewBox="0 0 37 48" fill="none" xmlns="http://www.w3.org/2000/svg">
<path d="M18.3942 47.9365C24.6279 42.1071 29.252 36.8107 32.2666 32.0472C35.2812 27.2858 36.7885 23.0574 36.7885 19.362C36.7885 13.6887 35.0124 9.04288 31.4603 5.42448C27.9102 1.80816 23.5549 0 18.3942 0C13.2336 0 8.87727 1.80816 5.32513 5.42448C1.77504 9.04288 0 13.6887 0 19.362C0 23.0574 1.50731 27.2858 4.52192 32.0472C7.53653 36.8107 12.1606 42.1071 18.3942 47.9365Z" fill="#F3574A"/>
<path d="M27.4903 6.48637C23.1819 2.85258 12.4322 20.5764 8.96545 26.5911C8.7108 27.0329 9.26323 27.4718 9.67597 27.1612C10.0596 26.8724 10.4536 26.5767 10.8557 26.2748L10.8598 26.2717C19.5625 19.7385 32.0964 10.329 27.4903 6.48637Z" fill="white"/>
<path d="M31.8882 20.9927C30.8799 18.2821 21.9655 23.1004 17.965 25.4309C17.518 25.6913 17.7672 26.3348 18.2835 26.2615C24.4158 25.3906 33.0849 24.1372 31.8882 20.9927Z" fill="white"/>
<path d="M21.4817 29.6904C20.9632 29.6134 20.9351 28.9292 21.4493 28.8289C23.6623 28.3972 26.704 27.9984 26.7654 29.0518C26.8017 30.3335 24.0034 30.0645 21.4817 29.6904Z" fill="white"/>
<path d="M5.69433 15.9676C4.60051 16.0272 5.01578 18.9538 5.47496 21.1188C5.58127 21.6201 6.29739 21.585 6.36824 21.0779C6.71297 18.6106 6.95337 15.8971 5.69433 15.9676Z" fill="white"/>
<path d="M8.84835 17.9418C9.30472 14.3937 10.403 8.03581 12.3636 8.61966C14.6395 9.29737 11.8916 14.3332 9.72393 18.2016C9.47284 18.6497 8.78329 18.4476 8.84835 17.9418Z" fill="white"/>
</svg>
