<svg width="37" height="48" viewBox="0 0 37 48" fill="none" xmlns="http://www.w3.org/2000/svg">
<path d="M18.3942 47.9365C24.6279 42.1071 29.252 36.8107 32.2666 32.0472C35.2812 27.2858 36.7885 23.0574 36.7885 19.362C36.7885 13.6887 35.0124 9.04288 31.4603 5.42448C27.9102 1.80816 23.5549 0 18.3942 0C13.2336 0 8.87727 1.80816 5.32513 5.42448C1.77504 9.04288 0 13.6887 0 19.362C0 23.0574 1.50731 27.2858 4.52192 32.0472C7.53653 36.8107 12.1606 42.1071 18.3942 47.9365Z" fill="#F3574A"/>
<path d="M24.5257 22.2653C24.5257 25.2154 22.1756 27.6123 19.2831 27.6123C16.3906 27.6123 14.0405 25.2154 14.0405 22.2653C14.0405 19.3153 16.3906 16.9184 19.2831 16.9184C22.1756 16.9184 24.5257 19.3153 24.5257 22.2653ZM19.2831 6.4703C19.2831 10.2808 17.5356 13.7839 14.5226 16.0579C12.2327 17.7173 11.1481 19.807 11.1481 22.2653C11.1481 24.7852 12.2327 26.8133 14.5226 28.4727C17.5356 30.6852 19.2831 34.2499 19.2831 38.0604V41.1948C19.2831 41.8708 18.7408 42.3625 18.1382 42.3625C17.4753 42.3625 16.9932 41.8094 16.9932 41.1948V38.0604C16.9932 35.0489 15.547 32.2217 13.1969 30.4394C10.3647 28.3498 8.91846 25.5841 8.91846 22.3268C8.91846 19.0694 10.3647 16.3038 13.1969 14.2141C15.6073 12.4318 16.9932 9.6047 16.9932 6.53174V6.22444L14.8842 8.37552C14.4021 8.86719 13.679 8.86719 13.2571 8.37552C12.7751 7.88384 12.7751 7.14636 13.2571 6.71615L17.2945 2.59837C17.7766 2.1067 18.4997 2.1067 18.9215 2.59837L22.959 6.71615C23.441 7.20782 23.441 7.9453 22.959 8.37552C22.4769 8.86719 21.7538 8.86719 21.3319 8.37552L19.2228 6.22444V6.4703H19.2831Z" fill="white"/>
</svg>
