<svg width="37" height="48" viewBox="0 0 37 48" fill="none" xmlns="http://www.w3.org/2000/svg">
<path d="M18.3942 47.9365C24.6279 42.1071 29.252 36.8107 32.2666 32.0472C35.2812 27.2858 36.7885 23.0574 36.7885 19.362C36.7885 13.6887 35.0124 9.04288 31.4603 5.42448C27.9102 1.80816 23.5549 0 18.3942 0C13.2336 0 8.87727 1.80816 5.32513 5.42448C1.77504 9.04288 0 13.6887 0 19.362C0 23.0574 1.50731 27.2858 4.52192 32.0472C7.53653 36.8107 12.1606 42.1071 18.3942 47.9365Z" fill="#F3574A"/>
<path fill-rule="evenodd" clip-rule="evenodd" d="M10.662 28.1573V19.1719L10.4394 18.8106C10.2168 18.5849 10.0387 18.314 9.90513 17.9979C9.77157 17.6818 9.72705 17.3658 9.72705 17.0497C9.72705 16.7336 9.77157 16.4175 9.90513 16.1015C10.0387 15.7854 10.2168 15.5145 10.4394 15.2887L13.823 11.812C14.2237 11.4056 14.758 11.1798 15.3368 11.1798H19.3437L21.7033 8.78672C23.039 7.43213 25.3096 7.38699 26.6452 8.74157C27.313 9.41886 27.8473 10.1413 28.2925 10.9541C28.5151 11.3604 28.6041 11.7668 28.5151 12.2183L28.248 13.7535L26.4671 13.0311L26.6007 15.063L24.7753 14.4308V16.4175L22.8609 15.9209L22.6383 17.5012L23.4842 18.4946L24.3301 16.6884L25.7102 17.727L26.2445 15.8306L27.8028 17.0497L28.337 15.1081L29.2275 16.3272C29.361 16.553 29.4501 16.8691 29.4055 17.14L29.3165 17.7721C29.272 18.0882 29.1384 18.3591 28.9158 18.5849L24.152 23.642V28.1573C24.152 28.7894 23.6623 29.2861 23.039 29.2861H11.775C11.1517 29.2861 10.662 28.7894 10.662 28.1573ZM25.4876 10.3219C25.8438 10.6831 26.1109 11.0444 26.3781 11.4507L21.5698 14.9727C21.3471 15.1533 21.2136 15.3339 21.1691 15.6048L20.9019 17.0497C20.8129 17.3658 20.9019 17.6818 21.08 17.9527L22.2376 19.5331C22.4602 19.804 22.7718 19.9846 23.128 19.9846H24.2856L22.4157 22.0165C22.104 22.3326 21.9704 22.7389 21.9704 23.1453V26.9833H12.8436V21.5198L15.871 24.2741C16.3608 24.7708 17.1621 24.6805 17.5628 24.0935C17.7409 23.8226 17.919 23.4614 18.0526 23.1453C18.3642 22.4229 18.4978 21.6101 18.4978 20.7974C18.4978 19.7589 18.2306 18.7655 17.7409 17.8624C17.4293 17.2755 17.0286 16.7788 16.5834 16.3272L14.4018 14.205L15.2922 13.1214H17.2065C17.0109 13.3855 16.895 13.7138 16.895 14.0696C16.895 14.9424 17.5927 15.6499 18.4533 15.6499C19.3139 15.6499 20.0115 14.9424 20.0115 14.0696C20.0115 13.6667 19.8628 13.299 19.6181 13.0199C20.0147 12.9072 20.3777 12.7049 20.6793 12.3989L23.2171 9.9607C23.9739 9.28341 24.9089 9.64463 25.4876 10.3219Z" fill="white"/>
</svg>
