<svg width="37" height="48" viewBox="0 0 37 48" fill="none" xmlns="http://www.w3.org/2000/svg">
<path d="M18.3942 47.9365C24.6279 42.1071 29.252 36.8107 32.2666 32.0472C35.2812 27.2858 36.7885 23.0574 36.7885 19.362C36.7885 13.6887 35.0124 9.04288 31.4603 5.42448C27.9102 1.80816 23.5549 0 18.3942 0C13.2336 0 8.87727 1.80816 5.32513 5.42448C1.77504 9.04288 0 13.6887 0 19.362C0 23.0574 1.50731 27.2858 4.52192 32.0472C7.53653 36.8107 12.1606 42.1071 18.3942 47.9365Z" fill="#F3574A"/>
<path fill-rule="evenodd" clip-rule="evenodd" d="M9.7627 10.5859V6.28777C9.7627 5.57985 10.3111 5.02362 11.0092 5.02362C11.7072 5.02362 12.2556 5.57985 12.2556 6.28777V10.5859C12.2556 11.2938 11.7072 11.85 11.0092 11.85C10.3111 11.85 9.7627 11.2938 9.7627 10.5859ZM9.7627 20.8508V16.5527C9.7627 15.8447 10.3111 15.2885 11.0092 15.2885C11.7072 15.2885 12.2556 15.8447 12.2556 16.5527V20.8508C12.2556 21.5587 11.7072 22.1149 11.0092 22.1149C10.3111 22.1149 9.7627 21.5587 9.7627 20.8508ZM9.7627 31.0651V26.767C9.7627 26.0591 10.3111 25.5029 11.0092 25.5029C11.7072 25.5029 12.2556 26.0591 12.2556 26.767V31.0651C12.2556 31.7731 11.7072 32.3293 11.0092 32.3293C10.3111 32.3293 9.7627 31.7731 9.7627 31.0651ZM21.6291 12.9624V6.33831C21.6291 5.63038 22.1776 5.02359 22.8756 5.07416H22.8257C23.5238 5.07416 24.0722 5.63038 24.0722 6.33831V12.9624C24.0722 13.6619 23.5368 14.2133 22.8507 14.2264C22.1646 14.2133 21.6291 13.6619 21.6291 12.9624ZM22.8507 14.2264L22.8756 14.2266H22.8257L22.8507 14.2264ZM16.743 28.4357V27.6266H26.4157V28.4357C26.4157 28.638 26.5154 28.8402 26.6649 28.9919C26.8145 29.1436 27.014 29.2448 27.2633 29.2448H28.061C28.3103 29.2448 28.5097 29.1436 28.6593 28.9919C28.8089 28.8402 28.9086 28.6885 28.9086 28.4357V21.8621L27.2134 16.9572C27.1137 16.7044 26.9641 16.5021 26.7647 16.3504C26.5652 16.1987 26.3159 16.1482 26.0666 16.1482H17.092C16.8427 16.1482 16.5934 16.1987 16.394 16.3504C16.1945 16.5021 16.045 16.7044 15.9453 16.9572L14.2501 21.8621V28.4357C14.2501 28.638 14.3498 28.8402 14.4993 28.9919C14.6489 29.1436 14.8484 29.2448 15.0977 29.2448H15.8954C16.1447 29.2448 16.3441 29.1436 16.4937 28.9919C16.6433 28.8402 16.743 28.6885 16.743 28.4357ZM26.6649 20.244H16.5436L17.3912 17.7663H25.8174L26.6649 20.244ZM18.7872 24.8455C18.5878 25.0983 18.2886 25.1995 17.9396 25.1995C17.5906 25.1995 17.3413 25.0478 17.092 24.8455C16.8427 24.5927 16.743 24.3399 16.743 23.9859C16.743 23.6319 16.8427 23.3791 17.092 23.1263C17.2915 22.8734 17.5906 22.7723 17.9396 22.7723C18.2388 22.7723 18.5379 22.8734 18.7872 23.1263C19.0365 23.3791 19.1362 23.6319 19.1362 23.9859C19.1362 24.3399 19.0365 24.5927 18.7872 24.8455ZM26.1664 24.8455C25.9669 25.0983 25.6678 25.1995 25.3188 25.1995C24.9698 25.1995 24.6706 25.0478 24.4712 24.8455C24.2219 24.5927 24.1221 24.3399 24.1221 23.9859C24.1221 23.6319 24.2219 23.3791 24.4712 23.1263C24.6706 22.8734 24.9698 22.7723 25.3188 22.7723C25.6179 22.7723 25.9171 22.8734 26.1664 23.1263C26.4157 23.3791 26.5154 23.6319 26.5154 23.9859C26.5154 24.3399 26.4157 24.5927 26.1664 24.8455ZM27.3131 26.0085H15.8954V21.9127H27.3131V26.0085ZM21.6291 31.1157V30.5089C21.6291 29.8515 22.1776 29.2953 22.8257 29.2953H22.8756C23.5238 29.2953 24.0722 29.8515 24.0722 30.5089V31.1157C24.0722 31.7731 23.5238 32.3293 22.8756 32.3293H22.8257C22.1776 32.3293 21.6291 31.7731 21.6291 31.1157Z" fill="white"/>
</svg>
