<svg width="28" height="36" viewBox="0 0 28 36" fill="none" xmlns="http://www.w3.org/2000/svg">
<path d="M23.7167 23.5272L23.7166 23.5274C21.5938 26.837 18.3653 30.539 14 34.6342C9.63466 30.539 6.40617 26.837 4.28341 23.5274L4.2833 23.5272C2.04136 20.0332 1 17.0481 1 14.5407C1 10.5123 2.2679 7.28747 4.76171 4.77925C7.27241 2.25715 10.3308 1 14 1C17.6692 1 20.7267 2.25713 23.2358 4.77904C25.7313 7.28736 27 10.5122 27 14.5407C27 17.0481 25.9586 20.0332 23.7167 23.5272Z" fill="white" stroke="#57A9F2" stroke-width="2"/>
<mask id="mask0_434_523" style="mask-type:alpha" maskUnits="userSpaceOnUse" x="3" y="3" width="22" height="22">
<rect x="3.44287" y="3.39714" width="21.1142" height="20.8336" fill="#D9D9D9"/>
</mask>
<g mask="url(#mask0_434_523)">
<path d="M7.84167 21.6266V6.86941H15.7595L16.1114 8.60555H21.0381V17.2862H14.8797L14.5278 15.5501H9.60119V21.6266H7.84167ZM16.3314 15.5501H19.2785V10.3417H14.6598L14.3079 8.60555H9.60119V13.814H15.9794L16.3314 15.5501Z" fill="#57A9F2"/>
</g>
</svg>
