<svg width="28" height="36" viewBox="0 0 28 36" fill="none" xmlns="http://www.w3.org/2000/svg">
<path d="M23.7166 23.5274L23.7167 23.5272C25.9586 20.0332 27 17.0481 27 14.5407C27 10.5122 25.7313 7.28736 23.2358 4.77904C20.7267 2.25713 17.6692 1 14 1C10.331 1 7.27274 2.25701 4.76211 4.77884L23.7166 23.5274ZM23.7166 23.5274C21.5938 26.837 18.3653 30.539 14 34.6342C9.63466 30.539 6.40617 26.837 4.28341 23.5274L4.2833 23.5272M23.7166 23.5274L4.2833 23.5272M4.2833 23.5272C2.04136 20.0332 1 17.0481 1 14.5407C1 10.5121 2.26802 7.28718 4.76205 4.7789L4.2833 23.5272Z" fill="white" stroke="#57A9F2" stroke-width="2"/>
<path d="M14 21.0302C18.019 21.0302 21.3 17.812 21.3 13.814C21.3 9.81594 18.019 6.59768 14 6.59768C9.98093 6.59768 6.69995 9.81594 6.69995 13.814C6.69995 17.812 9.98093 21.0302 14 21.0302Z" stroke="#57A9F2" stroke-width="2"/>
<path d="M14 18.0767C16.3558 18.0767 18.3 16.1871 18.3 13.814C18.3 11.4408 16.3558 9.55116 14 9.55116C11.6441 9.55116 9.69995 11.4408 9.69995 13.814C9.69995 16.1871 11.6441 18.0767 14 18.0767Z" fill="#57A9F2" stroke="white" stroke-width="3"/>
</svg>
