<svg width="99" height="42" viewBox="0 0 99 42" fill="none" xmlns="http://www.w3.org/2000/svg">
<path fill-rule="evenodd" clip-rule="evenodd" d="M67.5331 24.4742C65.5784 22.5055 63.1638 21.5404 60.2892 21.5404C57.4146 21.5404 55 22.5055 53.0453 24.4742C51.0906 26.443 50.1324 28.875 50.1324 31.7702C50.1324 34.6654 51.0906 37.0974 53.0453 39.0662C53.1219 39.1434 53.1986 39.2206 53.2752 39.2592C53.8502 39.8382 54.5017 40.3401 55.1916 40.7261C56.3798 41.4209 57.7213 41.807 59.1394 41.9228C59.5227 41.9614 59.9059 41.9614 60.3275 41.9614C63.2021 41.9614 65.6167 40.9963 67.5714 39.0276C69.5261 37.0588 70.4843 34.6268 70.4843 31.7316C70.446 28.875 69.4878 26.443 67.5331 24.4742ZM96.0488 24.4742C94.0941 22.5055 91.6794 21.5404 88.8049 21.5404C85.9303 21.5404 83.5157 22.5055 81.561 24.4742C79.6063 26.443 78.6481 28.875 78.6481 31.7702C78.6481 34.6654 79.6063 37.0974 81.561 39.0662C83.5157 41.0349 85.9303 42 88.8049 42C89.4181 42 89.993 41.9614 90.5296 41.8842C90.9895 41.807 91.4495 41.7298 91.9094 41.5753C93.4808 41.1121 94.8606 40.2628 96.0871 39.0662C98.0418 37.0974 99 34.6654 99 31.7702C99 28.875 98.0035 26.443 96.0488 24.4742ZM46.6829 39.4908C46.6829 40.1084 46.453 40.6489 46.0314 41.0735C45.6098 41.4981 45.1115 41.6912 44.4983 41.6912C43.9233 41.6912 43.4251 41.4981 43.0035 41.0735C42.5819 40.6489 42.3902 40.1084 42.3902 39.4908V17.3327C42.3902 16.715 42.5819 16.2132 43.0035 15.7886C43.4251 15.3639 43.9617 15.1323 44.5749 15.1323C45.1882 15.1323 45.6864 15.3639 46.0697 15.7886C46.4913 16.2132 46.6829 16.715 46.6829 17.3327V39.4908ZM2.10801 22.5055C2.56794 22.5055 2.98954 22.6213 3.33449 22.8529C3.71776 23.0845 3.98606 23.3934 4.1777 23.8566L9.08362 35.1673L13.9512 23.8952C14.3728 22.9301 14.9861 22.4669 15.8293 22.5441C16.4042 22.5441 16.9024 22.7371 17.2474 23.1231C17.6307 23.4706 17.8223 23.9338 17.8223 24.4742C17.8223 24.6287 17.784 24.8217 17.7073 25.0147C17.669 25.2077 17.5923 25.4007 17.5157 25.5551L10.9233 40.3014C10.5401 41.1507 9.92682 41.614 9.12195 41.6526C8.66202 41.7298 8.24042 41.6526 7.81881 41.4209C7.39721 41.1893 7.09059 40.8033 6.89895 40.3014L0.268286 25.5551C0.229958 25.4393 0.153303 25.2849 0.076648 25.0919C0.0383205 24.8989 0 24.6673 0 24.397C0 23.9724 0.191638 23.5478 0.574913 23.1617C0.958188 22.6985 1.49477 22.5055 2.10801 22.5055ZM64.7352 28.9522C65.2334 29.8401 65.4634 30.8823 65.4634 32.1176C65.4634 33.3143 65.2334 34.3566 64.7352 35.2831C64.2753 36.1709 63.6237 36.8658 62.7805 37.3676C61.9756 37.8695 61.0557 38.1011 60.0592 38.1011C59.0627 38.1011 58.1429 37.8695 57.338 37.3676C56.5331 36.8658 55.8815 36.1709 55.3833 35.2831C54.9233 34.3566 54.6551 33.3143 54.6551 32.1176C54.6551 30.8823 54.885 29.8401 55.3833 28.9522C55.8815 28.0257 56.5331 27.3309 57.338 26.829C58.1812 26.3272 59.0627 26.0956 60.0592 26.0956C61.0557 26.0956 61.9373 26.3658 62.7805 26.829C63.5854 27.3309 64.2369 28.0257 64.7352 28.9522ZM24.7596 40.7647C26.2544 41.614 28.0174 42 30.0104 42C31.1986 42 32.3484 41.807 33.4599 41.4209C34.5714 40.9963 35.453 40.5331 36.0662 40.0312C36.7178 39.4908 37.0627 38.9117 37.0627 38.2941C37.0627 37.8309 36.8711 37.4062 36.5261 37.0588C36.1812 36.7114 35.7596 36.5184 35.2613 36.5184C34.878 36.5184 34.4948 36.6342 34.0348 36.8272C33.7665 36.9816 33.4599 37.136 33.1533 37.3676C32.8467 37.5606 32.4251 37.7151 31.9268 37.8695C31.3902 38.0239 30.7003 38.1011 29.8188 38.1011C28.8606 38.1011 27.9791 37.8695 27.0976 37.4062C26.2543 36.943 25.5645 36.2481 25.0279 35.3603C24.7212 34.8198 24.4913 34.2408 24.3763 33.5845H36.1045C36.6794 33.5845 37.1777 33.3915 37.5993 33.0441C38.0209 32.6967 38.2509 32.2334 38.2892 31.6544C38.2892 30.3805 38.0592 29.1452 37.561 27.9871C37.101 26.829 36.4495 25.8253 35.6063 24.9761C34.7631 24.0882 33.8049 23.3934 32.7317 22.8915C31.6585 22.3897 30.5087 22.1581 29.3206 22.1581C27.7491 22.1581 26.2544 22.5827 24.8746 23.3934C23.4564 24.204 22.3449 25.3621 21.4634 26.9062C20.6202 28.4117 20.1986 30.2261 20.1986 32.3878C20.1986 34.2408 20.5819 35.8621 21.3868 37.329C22.1533 38.7573 23.3031 39.9154 24.7596 40.7647ZM24.453 29.9945C24.5296 29.6856 24.5679 29.4154 24.6829 29.1838C24.9512 28.4117 25.2962 27.7941 25.7561 27.3695C26.216 26.9062 26.7526 26.5974 27.3659 26.4044C27.9791 26.2114 28.6307 26.1342 29.3589 26.1342C30.0871 26.1342 30.777 26.2886 31.4286 26.636C32.0801 26.9448 32.655 27.3695 33.0766 27.9099C33.5366 28.4503 33.7665 29.068 33.8049 29.7629V30.0331H24.453V29.9945ZM94.3624 32.1176C94.3624 30.8823 94.0941 29.8401 93.6341 28.9522C93.1742 28.0257 92.5226 27.3309 91.6794 26.829C90.8745 26.3272 89.9547 26.0956 88.9582 26.0956C87.9617 26.0956 87.0418 26.3658 86.2369 26.829C85.432 27.3309 84.7805 28.0257 84.2822 28.9522C83.8223 29.8401 83.554 30.8823 83.554 32.1176C83.554 33.3143 83.784 34.3566 84.2822 35.2831C84.7805 36.1709 85.432 36.8658 86.2369 37.3676C87.0801 37.8695 87.9617 38.1011 88.9582 38.1011C89.9547 38.1011 90.8362 37.8695 91.6794 37.3676C92.5226 36.8658 93.1742 36.1709 93.6341 35.2831C94.1324 34.3566 94.3624 33.3143 94.3624 32.1176Z" fill="black"/>
<path d="M29.3589 20.4982C29.1673 20.4982 28.9373 20.4209 28.6307 20.2279C28.3624 19.9963 28.2091 19.7261 28.2474 19.3401C28.2474 19.1084 28.3241 18.9154 28.4774 18.6452L30.5471 14.9779C30.777 14.5919 31.0453 14.2445 31.3519 13.9742C31.6969 13.704 32.0802 13.5496 32.5018 13.5496C33.1533 13.5496 33.6516 13.7426 33.9582 14.0901C34.2648 14.4375 34.4181 14.8235 34.3798 15.3253C34.3415 15.557 34.3032 15.8272 34.1499 16.0588C34.0732 16.329 33.9199 16.5993 33.6899 16.8309L30.9687 19.8419C30.7387 20.1121 30.4704 20.2665 30.2021 20.3437C29.8955 20.4595 29.6272 20.4982 29.3589 20.4982Z" fill="#1E8371"/>
<path fill-rule="evenodd" clip-rule="evenodd" d="M78.8014 6.98713C79.6063 7.7978 80.5645 8.18382 81.676 8.18382C82.7875 8.18382 83.7456 7.7978 84.5505 6.98713C85.3554 6.17647 85.7387 5.2114 85.7387 4.09191C85.7387 2.97243 85.3554 2.00736 84.5505 1.19669C83.7456 0.386032 82.7875 0 81.676 0C80.5645 0 79.6063 0.386032 78.8014 1.19669C77.9965 2.00736 77.6132 2.97243 77.6132 4.09191C77.6132 5.2114 77.9965 6.17647 78.8014 6.98713Z" fill="#1E8371"/>
<path fill-rule="evenodd" clip-rule="evenodd" d="M76.5784 23.1618L72.0941 18.4522L77 13.5111L78.6481 15.171C79.9895 16.5221 81.4843 17.5644 83.2474 18.3364C84.9721 19.1085 86.9268 19.4945 89.0732 19.4945V15.4026C87.5401 15.4026 86.1603 15.1324 84.9338 14.5533C83.7073 13.9743 82.6341 13.2408 81.7143 12.3144L77.8432 8.41546C77.3833 7.95223 76.9233 7.6434 76.4251 7.45039C75.9268 7.25737 75.3902 7.18018 74.777 7.18018C74.1638 7.18018 73.6272 7.25737 73.1289 7.45039C72.6307 7.6434 72.1707 7.95223 71.7108 8.41546L66 14.1673C65.5401 14.6305 65.2334 15.0552 65.0418 15.4798C64.8502 15.9044 64.7735 16.4449 64.7735 17.0625C64.7735 17.6802 64.8502 18.2206 65.0418 18.6452C65.1951 19.1085 65.5401 19.5331 66 19.9191L72.5157 25.671V35.9394H76.5784V23.1618Z" fill="black"/>
</svg>
