<svg width="162" height="80" viewBox="0 0 162 80" fill="none" xmlns="http://www.w3.org/2000/svg">
<path fill-rule="evenodd" clip-rule="evenodd" d="M106.476 44.9632C103.683 42.1507 100.234 40.772 96.1274 40.772C92.0209 40.772 88.5714 42.1507 85.779 44.9632C82.9866 47.7757 81.6177 51.25 81.6177 55.386C81.6177 59.522 82.9866 62.9963 85.779 65.8088C85.8885 65.9191 85.998 66.0294 86.1075 66.0845C86.9288 66.9117 87.8596 67.6287 88.8452 68.1801C90.5425 69.1728 92.4589 69.7243 94.4848 69.8897C95.0324 69.9448 95.5799 69.9448 96.1822 69.9448C100.289 69.9448 103.738 68.5662 106.531 65.7537C109.323 62.9412 110.692 59.4669 110.692 55.3309C110.637 51.25 109.268 47.7757 106.476 44.9632ZM147.213 44.9632C144.42 42.1507 140.971 40.772 136.864 40.772C132.758 40.772 129.308 42.1507 126.516 44.9632C123.723 47.7757 122.354 51.25 122.354 55.386C122.354 59.522 123.723 62.9963 126.516 65.8088C129.308 68.6213 132.758 70 136.864 70C137.74 70 138.561 69.9448 139.328 69.8345C139.985 69.7242 140.642 69.6139 141.299 69.3934C143.544 68.7316 145.515 67.5184 147.267 65.8088C150.06 62.9963 151.429 59.522 151.429 55.386C151.429 51.25 150.005 47.7757 147.213 44.9632ZM76.6899 66.4154C76.6899 67.2978 76.3614 68.0698 75.7591 68.6765C75.1568 69.2831 74.445 69.5588 73.5689 69.5588C72.7476 69.5588 72.0358 69.2831 71.4335 68.6765C70.8312 68.0698 70.5575 67.2978 70.5575 66.4154V34.761C70.5575 33.8787 70.8312 33.1617 71.4335 32.5551C72.0358 31.9485 72.8024 31.6176 73.6785 31.6176C74.5545 31.6176 75.2663 31.9485 75.8138 32.5551C76.4161 33.1617 76.6899 33.8787 76.6899 34.761V66.4154ZM13.0114 42.1507C13.6685 42.1507 14.2708 42.3161 14.7636 42.647C15.3111 42.9779 15.6944 43.4191 15.9681 44.0809L22.9766 60.239L29.9303 44.136C30.5326 42.7573 31.4087 42.0956 32.6132 42.2059C33.4345 42.2059 34.1463 42.4816 34.6391 43.0331C35.1867 43.5294 35.4604 44.1912 35.4604 44.9632C35.4604 45.1838 35.4057 45.4595 35.2962 45.7353C35.2414 46.011 35.1319 46.2867 35.0224 46.5073L25.6048 67.5735C25.0572 68.7867 24.1812 69.4485 23.0314 69.5037C22.3743 69.614 21.772 69.5037 21.1697 69.1728C20.5674 68.8419 20.1294 68.2904 19.8556 67.5735L10.3833 46.5073C10.3285 46.3419 10.219 46.1213 10.1095 45.8456C10.0547 45.5698 10 45.2389 10 44.8529C10 44.2463 10.2738 43.6397 10.8213 43.0882C11.3688 42.4264 12.1354 42.1507 13.0114 42.1507ZM102.479 51.3603C103.191 52.6287 103.519 54.1176 103.519 55.8823C103.519 57.5919 103.191 59.0809 102.479 60.4044C101.822 61.6728 100.891 62.6654 99.6864 63.3823C98.5366 64.0992 97.2225 64.4301 95.7989 64.4301C94.3753 64.4301 93.0612 64.0992 91.9114 63.3823C90.7616 62.6654 89.8307 61.6728 89.1189 60.4044C88.4619 59.0809 88.0786 57.5919 88.0786 55.8823C88.0786 54.1176 88.4071 52.6287 89.1189 51.3603C89.8307 50.0367 90.7616 49.0441 91.9114 48.3272C93.116 47.6103 94.3753 47.2794 95.7989 47.2794C97.2225 47.2794 98.4818 47.6654 99.6864 48.3272C100.836 49.0441 101.767 50.0367 102.479 51.3603ZM45.3708 68.2353C47.5062 69.4485 50.0249 70 52.8721 70C54.5694 70 56.212 69.7242 57.7999 69.1728C59.3877 68.5662 60.6471 67.9044 61.5231 67.1875C62.454 66.4154 62.9467 65.5882 62.9467 64.7059C62.9467 64.0441 62.673 63.4375 62.1802 62.9412C61.6874 62.4448 61.0851 62.1691 60.3733 62.1691C59.8258 62.1691 59.2782 62.3345 58.6212 62.6103C58.2379 62.8309 57.7999 63.0514 57.3619 63.3823C56.9238 63.6581 56.3215 63.8787 55.6097 64.0993C54.8432 64.3198 53.8576 64.4301 52.5983 64.4301C51.2295 64.4301 49.9701 64.0992 48.7108 63.4375C47.5062 62.7757 46.5206 61.7831 45.7541 60.5147C45.3161 59.7426 44.9876 58.9154 44.8233 57.9779H61.5779C62.3992 57.9779 63.111 57.7022 63.7133 57.2059C64.3156 56.7095 64.6441 56.0478 64.6989 55.2206C64.6989 53.4007 64.3703 51.636 63.6585 49.9816C63.0015 48.3272 62.0707 46.8934 60.8661 45.6801C59.6615 44.4117 58.2927 43.4191 56.7596 42.7022C55.2265 41.9853 53.5839 41.6544 51.8865 41.6544C49.6416 41.6544 47.5062 42.261 45.5351 43.4191C43.5092 44.5772 41.9214 46.2316 40.662 48.4375C39.4574 50.5882 38.8551 53.1801 38.8551 56.2684C38.8551 58.9154 39.4027 61.2316 40.5525 63.3272C41.6476 65.3676 43.2902 67.022 45.3708 68.2353ZM44.9328 52.8492C45.0423 52.4081 45.0971 52.022 45.2613 51.6912C45.6446 50.5882 46.1374 49.7059 46.7944 49.0992C47.4515 48.4375 48.218 47.9963 49.0941 47.7206C49.9701 47.4448 50.9009 47.3345 51.9413 47.3345C52.9816 47.3345 53.9671 47.5551 54.898 48.0515C55.8288 48.4926 56.6501 49.0992 57.2524 49.8713C57.9094 50.6434 58.2379 51.5257 58.2927 52.5184V52.9044H44.9328V52.8492ZM144.803 55.8823C144.803 54.1176 144.42 52.6287 143.763 51.3603C143.106 50.0367 142.175 49.0441 140.971 48.3272C139.821 47.6103 138.507 47.2794 137.083 47.2794C135.66 47.2794 134.345 47.6654 133.196 48.3272C132.046 49.0441 131.115 50.0367 130.403 51.3603C129.746 52.6287 129.363 54.1176 129.363 55.8823C129.363 57.5919 129.691 59.0809 130.403 60.4044C131.115 61.6728 132.046 62.6654 133.196 63.3823C134.4 64.0992 135.66 64.4301 137.083 64.4301C138.507 64.4301 139.766 64.0992 140.971 63.3823C142.175 62.6654 143.106 61.6728 143.763 60.4044C144.475 59.0809 144.803 57.5919 144.803 55.8823Z" fill="black"/>
<path d="M51.9413 39.2831C51.6675 39.2831 51.339 39.1728 50.901 38.8971C50.5177 38.5662 50.2987 38.1802 50.3534 37.6287C50.3534 37.2978 50.4629 37.0221 50.6819 36.636L53.6386 31.3971C53.9672 30.8456 54.3504 30.3493 54.7885 29.9632C55.2812 29.5772 55.8288 29.3566 56.4311 29.3566C57.3619 29.3566 58.0737 29.6324 58.5117 30.1287C58.9497 30.625 59.1687 31.1765 59.114 31.8934C59.0592 32.2243 59.0045 32.6103 58.7855 32.9412C58.676 33.3272 58.457 33.7132 58.1284 34.0441L54.2409 38.3456C53.9124 38.7316 53.5291 38.9522 53.1459 39.0625C52.7078 39.2279 52.3246 39.2831 51.9413 39.2831Z" fill="#1E8371"/>
<path fill-rule="evenodd" clip-rule="evenodd" d="M122.573 19.9816C123.723 21.1397 125.092 21.6912 126.68 21.6912C128.268 21.6912 129.637 21.1397 130.786 19.9816C131.936 18.8235 132.484 17.4449 132.484 15.8456C132.484 14.2463 131.936 12.8677 130.786 11.7096C129.637 10.5515 128.268 10 126.68 10C125.092 10 123.723 10.5515 122.573 11.7096C121.424 12.8677 120.876 14.2463 120.876 15.8456C120.876 17.4449 121.424 18.8235 122.573 19.9816Z" fill="#1E8371"/>
<path fill-rule="evenodd" clip-rule="evenodd" d="M119.398 43.0883L112.992 36.3603L120 29.3015L122.354 31.6728C124.271 33.603 126.406 35.0919 128.925 36.1949C131.389 37.2978 134.181 37.8493 137.247 37.8493V32.0037C135.057 32.0037 133.086 31.6177 131.334 30.7905C129.582 29.9633 128.049 28.9155 126.735 27.5919L121.205 22.0221C120.548 21.3603 119.89 20.9191 119.179 20.6434C118.467 20.3677 117.7 20.2574 116.824 20.2574C115.948 20.2574 115.182 20.3677 114.47 20.6434C113.758 20.9191 113.101 21.3603 112.444 22.0221L104.286 30.239C103.629 30.9008 103.191 31.5074 102.917 32.114C102.643 32.7206 102.534 33.4927 102.534 34.375C102.534 35.2574 102.643 36.0294 102.917 36.6361C103.136 37.2978 103.629 37.9044 104.286 38.4559L113.594 46.6728V61.3419H119.398V43.0883Z" fill="black"/>
</svg>
