<svg width="79" height="81" viewBox="0 0 79 81" fill="none" xmlns="http://www.w3.org/2000/svg">
<path d="M39.6999 77.5326C60.024 77.5326 76.4999 60.823 76.4999 40.2107C76.4999 19.5985 60.024 2.88892 39.6999 2.88892C19.3758 2.88892 2.8999 19.5985 2.8999 40.2107C2.8999 60.823 19.3758 77.5326 39.6999 77.5326Z" fill="white" stroke="#F3574A" stroke-width="5"/>
<path fill-rule="evenodd" clip-rule="evenodd" d="M23.5911 57.2304V40.2663L23.1708 39.5843C22.7505 39.1581 22.4143 38.6466 22.1621 38.0499C21.91 37.4532 21.8259 36.8565 21.8259 36.2597C21.8259 35.663 21.91 35.0662 22.1621 34.4695C22.4143 33.8728 22.7505 33.3613 23.1708 32.9351L29.559 26.3711C30.3155 25.6039 31.3241 25.1777 32.4168 25.1777H39.9818L44.4367 20.6595C46.9583 18.1021 51.2451 18.0169 53.7668 20.5743C55.0276 21.853 56.0363 23.217 56.8768 24.7514C57.2971 25.5186 57.4652 26.2859 57.2971 27.1383L56.7928 30.0367L53.4306 28.6728L53.6827 32.5089L50.2365 31.3154V35.0663L46.6221 34.1286L46.2018 37.1122L47.7989 38.9876L49.3959 35.5777L52.0016 37.5384L53.0103 33.9581L55.9522 36.2597L56.9609 32.5941L58.642 34.8958C58.8941 35.322 59.0622 35.9187 58.9782 36.4302L58.8101 37.6237C58.726 38.2204 58.4739 38.7319 58.0536 39.1581L49.0597 48.7057V57.2304C49.0597 58.4239 48.1351 59.3616 46.9583 59.3616H25.6925C24.5157 59.3616 23.5911 58.4239 23.5911 57.2304ZM51.5813 23.5579C52.2538 24.2399 52.7581 24.9219 53.2624 25.6891L44.1845 32.3384C43.7642 32.6793 43.5121 33.0203 43.428 33.5318L42.9237 36.2597C42.7556 36.8565 42.9237 37.4532 43.2599 37.9647L45.4453 40.9483C45.8656 41.4598 46.454 41.8008 47.1264 41.8008H49.3119L45.7816 45.6369C45.1932 46.2336 44.941 47.0008 44.941 47.7681V55.014H27.7098V44.6991L33.4255 49.8992C34.3501 50.8369 35.8631 50.6664 36.6196 49.5582C36.9558 49.0467 37.292 48.3648 37.5442 47.7681C38.1326 46.4041 38.3847 44.8696 38.3847 43.3352C38.3847 41.3745 37.8804 39.4991 36.9558 37.7942C36.3674 36.686 35.6109 35.7482 34.7704 34.8958L30.6517 30.8891L32.3328 28.8433H35.9469C35.5776 29.3419 35.3588 29.9617 35.3588 30.6334C35.3588 32.2812 36.6759 33.617 38.3007 33.617C39.9255 33.617 41.2426 32.2812 41.2426 30.6334C41.2426 29.8727 40.9619 29.1786 40.4999 28.6516C41.2486 28.4388 41.9339 28.0569 42.5034 27.4793L47.2946 22.876C48.7235 21.5973 50.4886 22.2792 51.5813 23.5579Z" fill="#F3574A"/>
</svg>
