<svg width="80" height="81" viewBox="0 0 80 81" fill="none" xmlns="http://www.w3.org/2000/svg">
<path d="M40.0998 77.5326C60.4239 77.5326 76.8998 60.823 76.8998 40.2107C76.8998 19.5985 60.4239 2.88892 40.0998 2.88892C19.7757 2.88892 3.2998 19.5985 3.2998 40.2107C3.2998 60.823 19.7757 77.5326 40.0998 77.5326Z" fill="white" stroke="#F3574A" stroke-width="5"/>
<path d="M58.7998 16.0733C49.8849 8.29941 27.6417 46.2164 20.4683 59.084C19.9414 60.0292 21.0845 60.9681 21.9385 60.3036C22.7324 59.6858 23.5476 59.0531 24.3796 58.4073L24.3882 58.4007C42.3957 44.4239 68.3308 24.294 58.7998 16.0733Z" fill="#F3574A"/>
<path d="M67.8998 47.1072C65.8136 41.3082 47.3679 51.6161 39.0901 56.6018C38.1652 57.1589 38.6809 58.5356 39.7492 58.3787C52.4381 56.5157 70.3762 53.8342 67.8998 47.1072Z" fill="#F3574A"/>
<path d="M46.3669 65.7143C45.294 65.5497 45.2358 64.0859 46.2998 63.8713C50.879 62.9479 57.1729 62.0947 57.2998 64.3483C57.3749 67.0901 51.5847 66.5146 46.3669 65.7143Z" fill="#F3574A"/>
<path d="M13.6998 36.3568C11.4364 36.4844 12.2957 42.7452 13.2458 47.3769C13.4658 48.4493 14.9476 48.3743 15.0942 47.2894C15.8075 42.0109 16.3049 36.2058 13.6998 36.3568Z" fill="#F3574A"/>
<path d="M20.226 40.5802C21.1703 32.9897 23.4429 19.388 27.4998 20.6371C32.209 22.0869 26.523 32.8602 22.0378 41.1361C21.5182 42.0947 20.0914 41.6622 20.226 40.5802Z" fill="#F3574A"/>
</svg>
