<svg width="79" height="81" viewBox="0 0 79 81" fill="none" xmlns="http://www.w3.org/2000/svg">
<path d="M39.3999 77.5326C59.7239 77.5326 76.1999 60.823 76.1999 40.2107C76.1999 19.5985 59.7239 2.88892 39.3999 2.88892C19.0758 2.88892 2.59985 19.5985 2.59985 40.2107C2.59985 60.823 19.0758 77.5326 39.3999 77.5326Z" fill="white" stroke="#F3574A" stroke-width="5"/>
<path d="M40.7998 16.0775L43.6402 18.9703C44.4188 19.869 45.7363 19.8507 46.5952 18.9819C47.4772 18.1896 47.4574 16.8518 46.601 15.9795L40.1589 9.41864C39.3786 8.51787 38.0569 8.53831 37.1982 9.4129L30.7561 15.9738C29.8763 16.7643 29.894 18.0978 30.7447 18.9701C31.525 19.8711 32.8468 19.8507 33.7056 18.976L36.6449 15.9825C36.6086 20.7595 34.4353 25.1408 30.6843 27.9105C26.1026 31.2861 23.75 35.7688 23.75 41.049C23.75 46.3287 26.1022 50.8111 30.6831 54.1865C34.3743 56.9826 36.6454 61.4174 36.6454 66.1394V71.1378C36.6454 72.2429 37.5145 73.25 38.7239 73.25C39.82 73.25 40.8023 72.3582 40.8023 71.1378V66.1394C40.8023 59.9865 37.9762 54.2257 33.0976 50.6483L33.0964 50.6474C29.4968 48.0426 27.8107 44.8802 27.8107 40.951C27.8107 37.1187 29.4977 33.8586 33.0964 31.2546L33.0964 31.2546L33.1003 31.2517C37.8916 27.6407 40.7051 22.1102 40.7998 16.0775Z" fill="#F3574A" stroke="#F3574A" stroke-width="0.5"/>
<circle cx="39" cy="41" r="7" fill="#F3574A"/>
</svg>
