<svg width="79" height="81" viewBox="0 0 79 81" fill="none" xmlns="http://www.w3.org/2000/svg">
<path d="M39.3 77.5326C59.6241 77.5326 76.1 60.823 76.1 40.2107C76.1 19.5985 59.6241 2.88892 39.3 2.88892C18.9759 2.88892 2.5 19.5985 2.5 40.2107C2.5 60.823 18.9759 77.5326 39.3 77.5326Z" fill="white" stroke="#F3574A" stroke-width="5"/>
<path fill-rule="evenodd" clip-rule="evenodd" d="M26.2001 25.6066V17.7942C26.2001 16.5075 27.1969 15.4965 28.4657 15.4965C29.7344 15.4965 30.7313 16.5075 30.7313 17.7942V25.6066C30.7313 26.8933 29.7344 27.9043 28.4657 27.9043C27.1969 27.9043 26.2001 26.8933 26.2001 25.6066ZM26.2001 44.2643V36.452C26.2001 35.1652 27.1969 34.1542 28.4657 34.1542C29.7344 34.1542 30.7313 35.1652 30.7313 36.452V44.2643C30.7313 45.551 29.7344 46.5621 28.4657 46.5621C27.1969 46.5621 26.2001 45.551 26.2001 44.2643ZM26.2001 62.8301V55.0178C26.2001 53.731 27.1969 52.72 28.4657 52.72C29.7344 52.72 30.7313 53.731 30.7313 55.0178V62.8301C30.7313 64.1169 29.7344 65.1279 28.4657 65.1279C27.1969 65.1279 26.2001 64.1169 26.2001 62.8301ZM47.7687 29.9263V17.8861C47.7687 16.5994 48.7656 15.4964 50.0343 15.5884H49.9437C51.2124 15.5884 52.2093 16.5994 52.2093 17.8861V29.9263C52.2093 31.1977 51.2361 32.1999 49.989 32.2236C48.7419 32.1999 47.7687 31.1977 47.7687 29.9263ZM49.989 32.2236L50.0233 32.224L50.0343 32.224H49.9437L49.9687 32.2239L49.989 32.2236ZM38.8876 58.0508V56.5802H56.4688V58.0508C56.4688 58.4185 56.65 58.7861 56.9219 59.0618C57.1938 59.3375 57.5563 59.5214 58.0094 59.5214H59.4594C59.9126 59.5214 60.275 59.3375 60.5469 59.0618C60.8188 58.7861 61 58.5104 61 58.0508V46.1025L57.9188 37.1872C57.7375 36.7277 57.4657 36.36 57.1032 36.0843C56.7407 35.8086 56.2876 35.7167 55.8344 35.7167H39.522C39.0688 35.7167 38.6157 35.8086 38.2532 36.0843C37.8907 36.36 37.6188 36.7277 37.4376 37.1872L34.3563 46.1025V58.0508C34.3563 58.4185 34.5376 58.7861 34.8094 59.0618C35.0813 59.3375 35.4438 59.5214 35.897 59.5214H37.3469C37.8001 59.5214 38.1626 59.3375 38.4344 59.0618C38.7063 58.7861 38.8876 58.5104 38.8876 58.0508ZM56.9219 43.1614H38.5251L40.0657 38.6578H55.3813L56.9219 43.1614ZM42.6032 51.5252C42.2407 51.9847 41.6969 52.1686 41.0626 52.1686C40.4282 52.1686 39.9751 51.8928 39.522 51.5252C39.0688 51.0656 38.8876 50.6061 38.8876 49.9628C38.8876 49.3194 39.0688 48.8598 39.522 48.4003C39.8845 47.9407 40.4282 47.7569 41.0626 47.7569C41.6063 47.7569 42.1501 47.9407 42.6032 48.4003C43.0563 48.8598 43.2376 49.3194 43.2376 49.9628C43.2376 50.6061 43.0563 51.0656 42.6032 51.5252ZM56.0157 51.5252C55.6532 51.9847 55.1094 52.1686 54.4751 52.1686C53.8407 52.1686 53.2969 51.8928 52.9344 51.5252C52.4813 51.0656 52.3 50.6061 52.3 49.9628C52.3 49.3194 52.4813 48.8598 52.9344 48.4003C53.2969 47.9407 53.8407 47.7569 54.4751 47.7569C55.0188 47.7569 55.5625 47.9407 56.0157 48.4003C56.4688 48.8598 56.6501 49.3194 56.6501 49.9628C56.6501 50.6061 56.4688 51.0656 56.0157 51.5252ZM58.1001 53.6392H37.3469V46.1944H58.1001V53.6392ZM47.7687 62.922V61.8191C47.7687 60.6243 48.7656 59.6133 49.9437 59.6133H50.0343C51.2124 59.6133 52.2093 60.6243 52.2093 61.8191V62.922C52.2093 64.1169 51.2124 65.1279 50.0343 65.1279H49.9437C48.7656 65.1279 47.7687 64.1169 47.7687 62.922Z" fill="#F3574A"/>
</svg>
