<svg width="79" height="81" viewBox="0 0 79 81" fill="none" xmlns="http://www.w3.org/2000/svg">
<path d="M39.3999 77.5326C59.7239 77.5326 76.1999 60.823 76.1999 40.2107C76.1999 19.5985 59.7239 2.88892 39.3999 2.88892C19.0758 2.88892 2.59985 19.5985 2.59985 40.2107C2.59985 60.823 19.0758 77.5326 39.3999 77.5326Z" fill="white" stroke="#F3574A" stroke-width="5"/>
<path d="M39.3649 20.206H39.4382C39.2909 24.9804 37.0372 29.3392 33.2432 32.2044C30.0482 34.5212 28.5 37.4764 28.5 40.9586C28.5 44.5267 30.051 47.399 33.2457 49.7147C37.1653 52.5935 39.4459 57.2369 39.4459 62.2113V66.4288C39.4459 67.0545 38.948 67.5 38.4054 67.5C37.8157 67.5 37.3649 67.0064 37.3649 66.4288V62.2113C37.3649 57.9998 35.3433 54.0496 32.0589 51.5587L32.0589 51.5587L32.0536 51.5548C28.3602 48.8298 26.5 45.253 26.5 41.0413C26.5 36.8296 28.3602 33.2529 32.0536 30.5279L32.054 30.5276C35.4301 28.0312 37.3649 24.0752 37.3649 19.7886V19.3752V18.151L36.5078 19.0251L33.67 21.9194C33.2033 22.3955 32.573 22.3585 32.2173 21.9439L32.2065 21.9313L32.1949 21.9194C31.7231 21.4383 31.7586 20.7776 32.1708 20.4098L32.1832 20.3987L32.1949 20.3868L37.6273 14.8462C38.094 14.3702 38.7243 14.4071 39.08 14.8217L39.0908 14.8344L39.1024 14.8462L44.5349 20.3868C45.0066 20.868 44.9711 21.5287 44.559 21.8964L44.5465 21.9075L44.5349 21.9194C44.0682 22.3955 43.4379 22.3585 43.0822 21.9439L43.0714 21.9313L43.0597 21.9194L40.4459 19.2536V19.206H40.3992L40.2219 19.0251L39.3649 18.151V19.3752V19.706V20.206ZM46.5 40.9586C46.5 44.6612 43.5525 47.6531 39.9459 47.6531C36.3394 47.6531 33.3919 44.6612 33.3919 40.9586C33.3919 37.2561 36.3394 34.2642 39.9459 34.2642C43.5525 34.2642 46.5 37.2561 46.5 40.9586Z" fill="#F3574A" stroke="#F3574A"/>
</svg>
