<svg width="80" height="81" viewBox="0 0 80 81" fill="none" xmlns="http://www.w3.org/2000/svg">
<path d="M39.8 77.5326C60.1241 77.5326 76.6 60.823 76.6 40.2107C76.6 19.5985 60.1241 2.88892 39.8 2.88892C19.4759 2.88892 3 19.5985 3 40.2107C3 60.823 19.4759 77.5326 39.8 77.5326Z" fill="white" stroke="#F3574A" stroke-width="5"/>
<path d="M13.4 54.9022L37.3 13.0166C38.4 11.0896 41.2 11.0896 42.3 13.0166L66.2 54.9022C67.3 56.8291 65.9 59.3646 63.7 59.3646H15.9C13.6 59.2632 12.2 56.8291 13.4 54.9022ZM19.9 53.9895H59.6L39.7 19.3045L19.9 53.9895ZM39.8 51.3526C40.5 51.3526 41.2 51.1497 41.7 50.5412C42.2 50.0341 42.5 49.4256 42.5 48.6143C42.5 47.9043 42.2 47.1945 41.7 46.6874C41.2 46.1803 40.6 45.876 39.8 45.876C39.1 45.876 38.4 46.1803 37.9 46.6874C37.4 47.1945 37.1 47.8029 37.1 48.6143C37.1 49.4256 37.4 50.0341 37.9 50.5412C38.4 51.0483 39 51.3526 39.8 51.3526ZM39.7 43.3406H39.9C41.3 43.3406 42.4 42.225 42.4 40.8051V30.0548C42.4 28.6349 41.3 27.5193 39.9 27.5193H39.7C38.3 27.5193 37.2 28.6349 37.2 30.0548V40.8051C37.1 42.1236 38.3 43.3406 39.7 43.3406Z" fill="#F3574A"/>
</svg>
